<svg xmlns="http://www.w3.org/2000/svg" width="300" height="400" viewBox="0 0 300 400">
  <defs>
    <g id="code">
      <rect x="16" y="0" width="4" height="4"/><rect x="12" y="4" width="4" height="4"/><rect x="8" y="8" width="4" height="4"/><rect x="4" y="12" width="4" height="4"/><rect x="0" y="16" width="4" height="4"/><rect x="4" y="20" width="4" height="4"/><rect x="8" y="24" width="4" height="4"/><rect x="12" y="28" width="4" height="4"/><rect x="16" y="32" width="4" height="4"/>
      <rect x="40" y="0" width="4" height="4"/><rect x="38" y="4" width="4" height="4"/><rect x="36" y="8" width="4" height="4"/><rect x="34" y="12" width="4" height="4"/><rect x="32" y="16" width="4" height="4"/><rect x="30" y="20" width="4" height="4"/><rect x="28" y="24" width="4" height="4"/><rect x="26" y="28" width="4" height="4"/><rect x="24" y="32" width="4" height="4"/>
      <rect x="48" y="0" width="4" height="4"/><rect x="52" y="4" width="4" height="4"/><rect x="56" y="8" width="4" height="4"/><rect x="60" y="12" width="4" height="4"/><rect x="64" y="16" width="4" height="4"/><rect x="60" y="20" width="4" height="4"/><rect x="56" y="24" width="4" height="4"/><rect x="52" y="28" width="4" height="4"/><rect x="48" y="32" width="4" height="4"/>
    </g>
  </defs>
  <rect width="300" height="400" fill="black"/>
  <!-- Top right - large -->
  <use href="#code" transform="translate(190, 55) rotate(10, 34, 16) scale(0.9)" fill="white" opacity="0.8"/>
  <!-- Left upper - medium -->
  <use href="#code" transform="translate(10, 115) rotate(-12, 34, 16) scale(0.7)" fill="white" opacity="0.6"/>
  <!-- Right center - large -->
  <use href="#code" transform="translate(200, 165) rotate(-8, 34, 16) scale(0.85)" fill="white" opacity="0.7"/>
  <!-- Left lower - medium -->
  <use href="#code" transform="translate(15, 265) rotate(8, 34, 16) scale(0.7)" fill="white" opacity="0.55"/>
  <!-- Bottom center - medium -->
  <use href="#code" transform="translate(120, 325) rotate(-6, 34, 16) scale(0.65)" fill="white" opacity="0.5"/>
  <!-- Bottom right - medium -->
  <use href="#code" transform="translate(210, 315) rotate(14, 34, 16) scale(0.65)" fill="white" opacity="0.5"/>
</svg>
